<svg width="59" height="61" viewBox="0 0 59 61" fill="none" xmlns="http://www.w3.org/2000/svg">
<circle cx="29.5" cy="30.5" r="13.5" fill="#D0A920" stroke="black" stroke-width="2"/>
<rect x="45.5" y="27.5" width="13" height="5" rx="2.5" fill="#D0A920" stroke="black"/>
<rect x="26.5" y="60.5" width="13" height="5" rx="2.5" transform="rotate(-90 26.5 60.5)" fill="#D0A920" stroke="black"/>
<rect x="48.5122" y="53.4136" width="13" height="5" rx="2.5" transform="rotate(-135 48.5122 53.4136)" fill="#D0A920" stroke="black"/>
<rect x="6.30949" y="50.2305" width="13" height="5" rx="2.5" transform="rotate(-45 6.30949 50.2305)" fill="#D0A920" stroke="black"/>
<rect x="0.5" y="27.5" width="13" height="5" rx="2.5" fill="#D0A920" stroke="black"/>
<rect x="26.5" y="13.5" width="13" height="5" rx="2.5" transform="rotate(-90 26.5 13.5)" fill="#D0A920" stroke="black"/>
<rect x="15.1445" y="20.314" width="13" height="5" rx="2.5" transform="rotate(-135 15.1445 20.314)" fill="#D0A920" stroke="black"/>
<rect x="38.9628" y="16.4263" width="13" height="5" rx="2.5" transform="rotate(-45 38.9628 16.4263)" fill="#D0A920" stroke="black"/>
</svg>
