<svg width="60" height="43" viewBox="0 0 60 43" fill="none" xmlns="http://www.w3.org/2000/svg">
<circle cx="14.5" cy="14.5" r="13.5" fill="#D0A920" stroke="black" stroke-width="2"/>
<path d="M29 7C21.268 7 15 14.268 15 22C9.75329 22 6 26.2533 6 31.5C6 36.7467 9.25329 41 14.5 41L45 40.9589C51.6274 40.9589 58 35.6274 58 29C58 22.4585 54.103 16.1652 43 17.4456C43 9.71365 36.732 7 29 7Z" fill="#D9D9D9"/>
<path d="M14.5013 42H14.5C11.584 42 9.18129 40.8085 7.52227 38.8672C5.8757 36.9404 5 34.3242 5 31.5C5 26.0944 8.6811 21.5381 14.0299 21.0443C14.5193 13.2098 20.9554 6 29 6C32.9547 6 36.6787 6.68915 39.444 8.4846C42.0223 10.1586 43.6819 12.7412 43.9589 16.3494C49.1462 15.9566 52.8796 17.2291 55.3503 19.5626C57.9712 22.038 59 25.5472 59 29C59 36.2831 52.0706 41.9582 45.0013 41.9589L14.5013 42ZM14.5013 42L45 41.9589L14.5013 42Z" stroke="black" stroke-opacity="0.97" stroke-width="2"/>
</svg>
