<svg width="57" height="40" viewBox="0 0 57 40" fill="none" xmlns="http://www.w3.org/2000/svg">
<circle cx="14.5" cy="14.5" r="13.5" fill="#D0A920" stroke="black" stroke-width="2"/>
<path d="M26 4C18.268 4 12 11.268 12 19C6.75329 19 3 23.2533 3 28.5C3 33.7467 6.25329 38 11.5 38L42 37.9589C48.6274 37.9589 55 32.6274 55 26C55 19.4585 51.103 13.1652 40 14.4456C40 6.71365 33.732 4 26 4Z" fill="#8C8C8C"/>
<path d="M11.5013 39H11.5C8.58401 39 6.18129 37.8085 4.52227 35.8672C2.8757 33.9404 2 31.3242 2 28.5C2 23.0944 5.6811 18.5381 11.0299 18.0443C11.5193 10.2098 17.9554 3 26 3C29.9547 3 33.6787 3.68915 36.444 5.4846C39.0223 7.15856 40.6819 9.74123 40.9589 13.3494C46.1462 12.9566 49.8796 14.2291 52.3503 16.5626C54.9712 19.038 56 22.5472 56 26C56 33.2831 49.0706 38.9582 42.0013 38.9589L11.5013 39ZM11.5013 39L42 38.9589L11.5013 39Z" stroke="black" stroke-opacity="0.97" stroke-width="2"/>
</svg>
