<svg width="56" height="40" viewBox="0 0 56 40" fill="none" xmlns="http://www.w3.org/2000/svg">
<circle cx="21.5" cy="14.5" r="13.5" fill="#D0A920" stroke="black" stroke-width="2"/>
<path d="M25 4C17.268 4 11 11.268 11 19C5.75329 19 2 23.2533 2 28.5C2 33.7467 5.25329 38 10.5 38L41 37.9589C47.6274 37.9589 54 32.6274 54 26C54 19.4585 50.103 13.1652 39 14.4456C39 6.71365 32.732 4 25 4Z" fill="#D9D9D9" fill-opacity="0.66"/>
<path d="M10.5013 39H10.5C7.58401 39 5.18129 37.8085 3.52227 35.8672C1.8757 33.9404 1 31.3242 1 28.5C1 23.0944 4.6811 18.5381 10.0299 18.0443C10.5193 10.2098 16.9554 3 25 3C28.9547 3 32.6787 3.68915 35.444 5.4846C38.0223 7.15856 39.6819 9.74123 39.9589 13.3494C45.1462 12.9566 48.8796 14.2291 51.3503 16.5626C53.9712 19.038 55 22.5472 55 26C55 33.2831 48.0706 38.9582 41.0013 38.9589L10.5013 39ZM10.5013 39L41 38.9589L10.5013 39Z" stroke="black" stroke-opacity="0.97" stroke-width="2"/>
</svg>
