<svg width="56" height="68" viewBox="0 0 56 68" fill="none" xmlns="http://www.w3.org/2000/svg">
<path d="M10.5 37C10.8542 37 11.2079 36.9824 11.5599 36.9482L40.9588 36.9589C41.3023 36.9861 41.6495 37 42 37C49.1797 37 55 31.1797 55 24C55 16.8203 49.1797 11 42 11C41.0552 11 40.1339 11.1008 39.2464 11.2922C37.2719 5.31411 31.6398 1 25 1C16.7157 1 10 7.71573 10 16C10 16.0355 10.0001 16.0709 10.0004 16.1063C4.91175 16.834 1 21.2102 1 26.5C1 29.3242 1.8757 31.9404 3.52227 33.8672C5.18129 35.8085 7.58401 37 10.5 37Z" fill="#D9D9D9" stroke="black" stroke-width="2"/>
<path d="M13.5001 44.4667V49M13.5001 44.4667L10.8048 47.4889M13.5001 44.4667L16.1954 47.4889M13.5001 44.4667V36.1556M13.5001 32V36.1556M13.5001 36.1556L16.1954 33.5111M13.5001 36.1556L10.8048 33.5111M16.9727 42.5312L20.9414 44.8527M16.9727 42.5312L18.2383 46.3503M16.9727 42.5312L20.9987 41.8075M16.9727 42.5312L9.69676 38.2752M6.05878 36.1471L9.69676 38.2752M9.69676 38.2752L8.76192 34.6496M9.69676 38.2752L6.00144 39.1924M10.0253 42.5278L6.05419 44.8454M10.0253 42.5278L6 41.8001M10.0253 42.5278L8.75578 46.3456M10.0253 42.5278L17.3056 38.279M20.9458 36.1546L17.3056 38.279M17.3056 38.279L21 39.1999M17.3056 38.279L18.2442 34.6544" stroke="#5FAAD3" stroke-linecap="round"/>
<path d="M38.5001 51.4667V56M38.5001 51.4667L35.8048 54.4889M38.5001 51.4667L41.1954 54.4889M38.5001 51.4667V43.1556M38.5001 39V43.1556M38.5001 43.1556L41.1954 40.5111M38.5001 43.1556L35.8048 40.5111M41.9727 49.5312L45.9414 51.8527M41.9727 49.5312L43.2383 53.3503M41.9727 49.5312L45.9987 48.8075M41.9727 49.5312L34.6968 45.2752M31.0588 43.1471L34.6968 45.2752M34.6968 45.2752L33.7619 41.6496M34.6968 45.2752L31.0014 46.1924M35.0253 49.5278L31.0542 51.8454M35.0253 49.5278L31 48.8001M35.0253 49.5278L33.7558 53.3456M35.0253 49.5278L42.3056 45.279M45.9458 43.1546L42.3056 45.279M42.3056 45.279L46 46.1999M42.3056 45.279L43.2442 41.6544" stroke="#5FAAD3" stroke-linecap="round"/>
<path d="M21.5001 62.4667V67M21.5001 62.4667L18.8048 65.4889M21.5001 62.4667L24.1954 65.4889M21.5001 62.4667V54.1556M21.5001 50V54.1556M21.5001 54.1556L24.1954 51.5111M21.5001 54.1556L18.8048 51.5111M24.9727 60.5312L28.9414 62.8527M24.9727 60.5312L26.2383 64.3503M24.9727 60.5312L28.9987 59.8075M24.9727 60.5312L17.6968 56.2752M14.0588 54.1471L17.6968 56.2752M17.6968 56.2752L16.7619 52.6496M17.6968 56.2752L14.0014 57.1924M18.0253 60.5278L14.0542 62.8454M18.0253 60.5278L14 59.8001M18.0253 60.5278L16.7558 64.3456M18.0253 60.5278L25.3056 56.279M28.9458 54.1546L25.3056 56.279M25.3056 56.279L29 57.1999M25.3056 56.279L26.2442 52.6544" stroke="#5FAAD3" stroke-linecap="round"/>
</svg>
